<svg width="41" height="40" viewBox="0 0 41 40" fill="none" xmlns="http://www.w3.org/2000/svg">
<mask id="mask0_314_154595" style="mask-type:alpha" maskUnits="userSpaceOnUse" x="0" y="0" width="41" height="40">
<path d="M26.1149 0H14.0062C9.99055 0 7.98288 0 5.82155 0.683329C3.46155 1.54234 1.60288 3.401 0.743881 5.761C0.0605469 7.92233 0.0605469 9.93033 0.0605469 13.9457V26.0543C0.0605469 30.07 0.0605469 32.0773 0.743881 34.239C1.60288 36.599 3.46155 38.4577 5.82155 39.3163C7.98288 40 9.99055 40 14.0062 40H26.1149C30.1305 40 32.1379 40 34.2995 39.3163C36.6595 38.4577 38.5182 36.599 39.3772 34.239C40.0605 32.0773 40.0605 30.07 40.0605 26.0543V13.9457C40.0605 9.93033 40.0605 7.92233 39.3772 5.761C38.5182 3.401 36.6595 1.54234 34.2995 0.683329C32.1379 0 30.1305 0 26.1149 0Z" fill="#C4C4C4"/>
</mask>
<g mask="url(#mask0_314_154595)">
<rect width="40" height="40" transform="translate(0.0605469)" fill="#FF4052"/>
<path d="M18.1929 19.0414C18.1929 20.5053 18.0323 21.6746 17.7112 22.5481C17.3901 23.4223 16.9421 24.0443 16.3671 24.4148C15.7914 24.7853 15.0955 24.9708 14.2775 24.9708C13.2477 24.9708 12.3669 24.7224 11.6343 24.2249C10.95 23.7604 10.4507 23.0388 10.1357 22.06C10.0973 21.9404 9.97701 21.8688 9.85615 21.895L9.8183 21.9031C9.69438 21.9299 9.61197 22.0494 9.62845 22.1771L10.0509 25.4085C10.0521 25.4191 10.0527 25.4303 10.0527 25.4409V26.416C10.0527 26.7678 9.86713 27 9.48012 27H5.96645C5.65452 27 5.39386 26.7746 5.39386 26.416V13.8717C5.39386 13.5155 5.66856 13.2877 5.96645 13.2877H9.35925C9.68095 13.2877 9.941 13.5031 9.88728 13.9165L9.53689 16.8342C9.52102 16.965 9.60892 17.0851 9.7365 17.1075L9.76336 17.1119C9.88972 17.1337 10.0112 17.0509 10.0393 16.9232C10.2511 15.9687 10.5258 15.2129 10.8628 14.6543C11.226 14.0523 11.6728 13.6258 12.2027 13.3755C12.7325 13.1252 13.382 13 14.1512 13C16.8517 13.0006 18.199 15.0142 18.1929 19.0414ZM13.1061 21.1541C13.3362 20.7711 13.451 20.1628 13.451 19.3285C13.451 18.5197 13.3387 17.9419 13.1147 17.5957C12.8906 17.2501 12.5244 17.077 12.0153 17.077C11.6881 17.077 11.3792 17.1617 11.0886 17.3317C10.798 17.5017 10.5588 17.7613 10.3707 18.11C10.1827 18.4593 10.0771 18.8901 10.0527 19.4026V20.7543C10.0527 20.8365 10.0936 20.9137 10.1608 20.9598C10.5716 21.2406 10.9067 21.4367 11.1655 21.5476C11.4469 21.6677 11.7454 21.7281 12.0604 21.7281C12.528 21.7281 12.876 21.537 13.1061 21.1541Z" fill="#FFE1BF"/>
<path d="M31.3448 13C31.3417 13 31.3386 13 31.336 13C31.3324 13 31.3288 13 31.3247 13C30.3228 13 29.4552 13.3684 28.7213 14.1046C28.0007 14.8284 27.5157 15.9803 27.2658 17.5621C27.2576 17.6131 27.2344 17.6594 27.1989 17.6927C27.1259 17.7614 27.02 17.7614 26.9469 17.6927C26.9114 17.6594 26.8883 17.6131 26.8801 17.5621C26.6301 15.9803 26.1451 14.8284 25.4246 14.1046C24.6896 13.3684 23.822 13 22.8201 13C22.8165 13 22.8129 13 22.8088 13C22.8057 13 22.8026 13 22.8001 13C20.5561 13 19.2503 14.3133 19.435 16.9164C19.4972 17.7915 19.6144 18.4955 19.8248 19.1069C21.5148 24.0238 25.116 25.911 26.7623 26.8699C26.7623 26.8699 26.9788 27 27.0724 27C27.166 27 27.3872 26.8699 27.3872 26.8699C29.0335 25.911 32.63 24.0238 34.32 19.1069C34.5304 18.4955 34.6476 17.7915 34.7099 16.9164C34.8945 14.3133 33.5882 13 31.3448 13Z" fill="#FFE0BF"/>
</g>
</svg>
